<?xml version="1.0" standalone="no"?>
<!DOCTYPE svg PUBLIC "-//W3C//DTD SVG 20010904//EN"
 "http://www.w3.org/TR/2001/REC-SVG-20010904/DTD/svg10.dtd">
<svg version="1.0" xmlns="http://www.w3.org/2000/svg"
 width="96.000000pt" height="96.000000pt" viewBox="0 0 96.000000 96.000000"
 preserveAspectRatio="xMidYMid meet">
<metadata>
Created by potrace 1.14, written by Peter Selinger 2001-2017
</metadata>
<g transform="translate(0.000000,96.000000) scale(0.100000,-0.100000)"
fill="#000000" stroke="none">
<path d="M419 894 c-12 -13 -44 -38 -70 -56 -27 -18 -47 -37 -45 -43 2 -5 20
-9 40 -8 l37 3 -28 -51 c-15 -28 -55 -81 -88 -116 -33 -36 -61 -69 -63 -74 -7
-17 21 -9 89 27 75 40 164 112 199 162 12 17 36 35 51 40 16 4 30 10 32 13 4
10 -94 117 -113 122 -11 3 -27 -4 -41 -19z"/>
<path d="M575 680 l-40 -5 0 -55 c1 -53 14 -268 20 -320 2 -14 4 -33 4 -43 1
-16 10 -18 87 -15 53 2 90 8 96 15 10 12 6 112 -6 171 -3 13 -8 74 -11 135 -4
61 -9 115 -12 119 -5 9 -63 8 -138 -2z"/>
<path d="M373 582 c-23 -3 -23 -5 -21 -167 1 -91 5 -170 9 -177 8 -13 141 -14
162 -1 9 5 6 73 -8 198 -3 22 -7 61 -9 87 -2 26 -7 52 -11 58 -6 10 -65 11
-122 2z"/>
<path d="M183 492 c-26 -4 -26 -4 -23 -162 0 -52 5 -99 9 -103 4 -4 41 -7 81
-5 l74 3 -3 130 c-1 71 -5 133 -7 137 -5 8 -78 7 -131 0z"/>
<path d="M697 224 c-6 -5 -287 -18 -417 -18 -124 -1 -145 -3 -148 -17 -7 -38
22 -44 232 -44 205 0 358 8 388 20 20 8 30 43 15 52 -11 6 -64 12 -70 7z"/>
</g>
</svg>
